<?xml version="1.0" encoding="utf-8"?>
<svg version="1.1" xmlns="http://www.w3.org/2000/svg" xmlns:xlink="http://www.w3.org/1999/xlink" width="42" height="48" viewBox="0 0 448 512">
<path fill="#ccc" d="M320.45 31.95c-70.7 0-128 57.3-128 128 0 9.8 1.1 19.3 3.2 28.45l-195.65 195.6v32l32 32h64l32-32v-32h32v-32h32v-32h64l35.4-35.4c9.35 2.15 19.050 3.3 29.050 3.3 70.7 0 128-57.3 128-128s-57.35-127.95-128-127.95zM192 256l-160 160v-32l160-160v32zM352 160c-17.65 0-32-14.35-32-32s14.35-32 32-32 32 14.35 32 32c0 17.65-14.35 32-32 32z"></path>
</svg>
